<?xml version="1.0" encoding="utf-8"?>
<!-- Generator: Adobe Illustrator 30.1.0, SVG Export Plug-In . SVG Version: 9.03 Build 0)  -->
<svg version="1.1" xmlns="http://www.w3.org/2000/svg" xmlns:xlink="http://www.w3.org/1999/xlink" x="0px" y="0px"
	 viewBox="0 0 1024 1024" style="enable-background:new 0 0 1024 1024;" xml:space="preserve">
<g>
</g>
<g id="Clock-_location">
	<g>
		<path style="fill:#FFFFFF;fill-opacity:0.85;" d="M822.9924927,465.7666016
			c-14.4256592-2.9498901-29.3449097-4.4599915-44.5861816-4.4599915c-3.230835,0-6.4460449,0.0663452-9.5774536,0.4896851
			c-18.4779053-158.5050354-152.9934692-281.1372375-316.5106201-281.1372375
			c-176.333252,0-318.9415894,142.6104431-318.9415894,318.9417725c0,176.333313,142.6083221,318.9435425,318.9415894,318.9435425
			c42.6469116,0,83.319397-8.3405762,120.4020386-23.6402588c8.0029907,16.2733154,18.0643311,31.3544922,29.7741699,44.9998169
			c-45.8621216,20.5186768-96.7129517,31.7973633-150.1762085,31.7973633
			c-205.4831543,0-372.0996704-166.6153564-372.0996704-372.1004639c0-205.4831543,166.6165161-372.3847351,372.0996704-372.3847351
			C646.380249,127.2161026,806.0305176,276.0806885,822.9924927,465.7666016z"/>
		<path style="fill:#FFFFFF;fill-opacity:0.85;" d="M474.3235779,259.822998v254.925415
			c0,12.5741577-9.7159729,22.2921143-22.2901917,22.2921143H254.5512848c-12.574173,0-22.0053101-9.7179565-22.0053101-22.2921143
			c0-12.2893677,9.4311371-22.0053406,22.0053101-22.0053406H430.026123V259.822998
			c0-12.2889404,10.0027771-22.0059204,22.0072632-22.0059204
			C464.607605,237.8170776,474.3235779,247.5340576,474.3235779,259.822998z"/>
	</g>
	<path style="fill:#FFFFFF;fill-opacity:0.85;" d="M778.406311,506.7473145
		c-101.4558105,0-184.9078979,83.7349243-184.9078979,184.9060059c0,101.7406616,83.4520874,184.9059448,184.9078979,184.9059448
		c100.3126221,0,184.6212158-83.7368774,184.6212158-184.9059448
		C963.0275269,590.1974487,879.5754395,506.7473145,778.406311,506.7473145z M884.4764404,613.9157715L789.2614746,818.017395
		c-7.3240356,15.625-27.2460327,12.0120239-27.2460327-4.4920044l-0.2929688-94.8239746
		c0-1.6610107-0.5859985-2.3440552-2.2460327-2.3440552l-95.5075073-0.3909912
		c-16.796814-0.0979614-19.8241577-19.9219971-5.5663452-26.4646606l205.1758423-95.4101562
		C879.1054688,586.8649292,891.99646,597.5095215,884.4764404,613.9157715z"/>
</g>
</svg>
